Coordinates
version=1
nRows=5
nColumns=40
inDegrees=yes

Units are S.I. units (second, meters, Newtons, ...)
Angles are in degrees.

endheader
time	pelvis_tilt	pelvis_list	pelvis_rotation	pelvis_tx	pelvis_ty	pelvis_tz	hip_flexion_r	hip_adduction_r	hip_rotation_r	knee_angle_r	knee_angle_r_beta	ankle_angle_r	subtalar_angle_r	mtp_angle_r	hip_flexion_l	hip_adduction_l	hip_rotation_l	knee_angle_l	knee_angle_l_beta	ankle_angle_l	subtalar_angle_l	mtp_angle_l	lumbar_extension	lumbar_bending	lumbar_rotation	arm_flex_r	arm_add_r	arm_rot_r	elbow_flex_r	pro_sup_r	wrist_flex_r	wrist_dev_r	arm_flex_l	arm_add_l	arm_rot_l	elbow_flex_l	pro_sup_l	wrist_flex_l	wrist_dev_l
     27.00000000	     -4.67507250	     -2.29353919	     -2.34715849	      1.09046413	      0.91840334	      0.43938018	     29.68025686	     -2.97079367	    -15.85093337	     10.50355431	     10.50355431	      1.89505128	      5.31834902	     12.97755046	     -2.94937556	     -1.17467218	    -15.64504177	      9.02102762	      9.02102762	     17.95008787	     -1.91738947	     -7.82271283	    -10.12262301	      5.54096495	      1.73274794	    -18.95484450	    -11.15173873	    -26.71260291	     18.90142180	     48.21602667	      0.00000000	      0.00000000	     36.17135550	    -19.89441041	     -2.38349596	     71.37701889	     47.28381765	      0.00000000	      0.00000000
     27.01157143	     -4.70704831	     -2.34398887	     -2.46472895	      1.09174945	      0.91618053	      0.44126181	     29.32968448	     -2.39562178	    -16.21018438	      9.61165274	      9.61165274	      1.90305467	      5.66012224	     13.09722561	     -3.65273471	     -1.31449436	    -15.66107017	      9.11088163	      9.11088163	     18.60646677	     -2.01059934	     -7.73113730	     -9.94167098	      5.58965732	      1.90717909	    -19.95650324	    -11.11515029	    -26.82628581	     18.70160499	     48.22265474	      0.00000000	      0.00000000	     36.64417236	    -19.88319698	     -2.63617973	     72.54128969	     47.33233119	      0.00000000	      0.00000000
     27.02314286	     -4.75007067	     -2.40089106	     -2.58457916	      1.09319248	      0.91401315	      0.44330102	     29.12384379	     -1.92060974	    -16.42180227	      9.45678308	      9.45678308	      1.62838944	      5.79486380	     12.15922186	     -4.28209748	     -1.50883074	    -15.75114242	      9.37461858	      9.37461858	     19.44314159	     -1.86597051	     -7.09865816	     -9.70851536	      5.60675291	      2.10302354	    -20.87136532	    -11.03123338	    -26.99326986	     18.84663558	     48.21454776	      0.00000000	      0.00000000	     36.66786457	    -19.84391281	     -3.10424317	     74.60593902	     47.41502894	      0.00000000	      0.00000000
     27.03471429	     -4.76564304	     -2.54579220	     -2.68583238	      1.09464282	      0.91197249	      0.44548696	     29.06933330	     -1.46254964	    -16.36522471	     10.03576226	     10.03576226	      1.13792995	      5.30740546	     10.49990784	     -4.81851323	     -1.84683777	    -15.80500886	      9.88642091	      9.88642091	     20.35097147	     -1.88782325	     -6.48307646	     -9.59999541	      5.76551617	      2.14915549	    -21.44819505	    -11.04354124	    -27.06974425	     18.86533213	     48.20883926	      0.00000000	      0.00000000	     36.60290566	    -19.87344992	     -3.56567420	     76.14246872	     47.48496691	      0.00000000	      0.00000000
     27.04628571	     -4.78945881	     -2.74197715	     -2.75033032	      1.09645947	      0.91007237	      0.44788499	     28.83589813	     -0.92224400	    -15.95231878	     10.49541725	     10.49541725	     -0.76417532	      4.14527738	      5.07837625	     -5.27715739	     -2.33111572	    -16.11035281	     10.65515347	     10.65515347	     21.79521965	     -1.27038076	     -4.54349823	     -9.37886124	      5.95958651	      1.68762804	    -21.61012790	    -11.22318195	    -27.09911268	     18.97221885	     48.18912486	      0.00000000	      0.00000000	     35.62319928	    -20.23318581	     -4.69575525	     78.64651379	     47.63142900	      0.00000000	      0.00000000
